<svg width="730" height="713" viewBox="0 0 730 713" fill="none" xmlns="http://www.w3.org/2000/svg">
    <path d="M164.012 502.713C134.601 485.685 99.1339 470.131 80.2894 454.814C20.7603 406.423 42.2156 302.838 112.618 273.268C151.698 256.858 190.275 250.061 218.806 214.418C246.224 180.166 301.366 74.4198 371.858 53.4596C434.526 34.8237 484.598 111.258 506.86 145.067C550.417 211.23 609.688 208.243 621.772 267.248C629.752 306.214 583.727 338.268 569.585 347.271C548.944 360.407 429.959 444.378 421.484 458.82C400.954 493.82 376.257 525.261 352.121 557.843C332.602 584.196 291.508 628.99 256.949 609.073C209.075 581.471 219.845 535.041 164.012 502.713Z" fill="#FFE0CC"/>
    <path d="M208.875 527.623C184.927 510.836 158.309 499.573 135.587 480.165C63.7894 418.843 64.8522 309.311 137.066 287.469C177.143 275.346 213.421 269.352 239.225 234.78C264.023 201.558 276.1 165.658 288.472 125.299C296.631 98.6827 320.446 41.3331 384.49 45.3032C457.807 49.8395 512.815 145.057 535.558 187.859C576.963 265.784 668.135 293.78 682.461 341.179C695.644 384.775 670.427 420.647 632.585 439.506C557.4 476.971 494.438 557.211 438.214 635.047C420.05 660.187 386.082 698.447 344.382 679.269C292.845 655.56 291.825 585.766 208.875 527.623Z" fill="url(#paint0_linear)"/>
    <path d="M516.883 203H280.502V347.709H516.883V203Z" fill="white"/>
    <path d="M374.112 242.913H297.941C297.941 242.913 303.524 220.036 323.222 220.036C337.817 220.036 345.395 229.266 348.343 234.05C354.099 231.798 366.495 229.069 374.112 242.913" fill="#FFEEC5"/>
    <path d="M440.129 313.38C442.017 313.381 443.872 313.88 445.505 314.828C448.542 309.532 454.145 305.966 460.574 305.966C466.578 305.966 471.872 309.069 475.02 313.794C476.68 308.103 481.825 303.952 487.92 303.952C494.836 303.952 500.528 309.297 501.291 316.174C501.854 316.08 502.424 316.03 502.995 316.026C507.214 316.026 510.872 318.473 512.707 322.046H429.46C430.597 317.084 434.936 313.38 440.129 313.38Z" fill="#FFEEC5"/>
    <path opacity="0.29" d="M515.328 203.028V255.989H287.819V203.028H278.146V354.682H525V203.028H515.328ZM287.819 266.609H515.328V343.793H287.819V266.609Z" fill="#E87F45"/>
    <path d="M512.182 203V252.934H284.672V203H275V351.624H521.854V203H512.182ZM284.672 263.55H512.182V340.735H284.672V263.55Z" fill="#D9682A"/>
    <path d="M459.12 271.347C459.12 271.347 477.489 278.154 479.905 313.646C482.378 349.976 451.875 435.223 451.875 435.223C451.875 435.223 369.311 450.261 384.859 419.422C400.406 388.583 459.12 271.347 459.12 271.347Z" fill="#FF5351"/>
    <path d="M400.459 302.368C400.459 302.368 423.725 267.341 452.344 269.131C480.963 270.921 472.085 350.844 428.269 435.223L400.459 302.368Z" fill="#CE3434"/>
    <path d="M428.086 322.19C424.501 325.197 420.666 327.229 422.312 331.224C425.609 339.233 425.181 352.533 425.181 352.533C425.181 352.533 421.753 352.045 416.279 351.317C408.795 350.32 397.482 348.866 385.843 347.579C366.4 345.429 346.04 343.739 341.052 345.386C330.894 348.744 312.874 341.5 313.67 328.954C314.465 316.408 302.097 317.384 297.239 310.493C292.381 303.603 300.654 299.306 300.654 299.306C312.551 293.411 321.477 296.41 324.5 293.531C325.361 292.714 328.686 290 333.004 286.536C343.875 277.818 359.35 263.158 359.35 263.158C389.584 261.643 385.575 287.001 385.575 287.001C395.821 310.034 426.914 291.295 432.334 307.194C435.033 315.166 431.688 319.169 428.086 322.19Z" fill="#333D47"/>
    <path d="M385.831 347.58C366.388 345.43 346.027 343.74 341.04 345.386C330.882 348.744 312.862 341.501 313.657 328.955C314.452 316.409 302.085 317.384 297.227 310.494C292.369 303.603 300.642 299.306 300.642 299.306C312.539 293.411 321.465 296.41 324.488 293.532C325.349 292.715 328.674 290.001 332.992 286.536C340.022 287.221 344.946 288.188 344.946 288.188C344.946 288.188 389.267 307.999 394.277 321.15C397.185 328.786 408.156 339.414 385.831 347.58Z" fill="#0A1221"/>
    <path d="M422.311 331.223C425.608 339.233 425.18 352.532 425.18 352.532C425.18 352.532 387.423 316.778 381.942 316.049C369.333 298.59 372.756 291.712 372.756 291.712C372.756 291.712 382.909 307.499 408.53 307.492C417.793 307.492 429.903 309.283 428.087 322.19C424.501 325.198 420.666 327.228 422.311 331.223Z" fill="#0A1221"/>
    <path d="M431.615 394.588C431.615 394.588 433.971 413.081 432.087 417.084C430.203 421.088 396.988 412.373 400.757 404.953C404.526 397.533 414.42 400.125 414.42 400.125L431.615 394.588Z" fill="#0A1221"/>
    <path d="M384.856 313.055C384.921 319.809 374.769 323.031 369.388 321.802C367.611 321.398 366.355 320.508 366.158 319.1C366.138 318.968 366.129 318.835 366.129 318.701C366.115 317.446 365.919 316.199 365.547 315.001C364.136 310.297 360.654 306.432 360.654 306.432C360.654 306.432 370.639 278.161 372.755 289.831C374.044 296.915 378.234 303.966 381.324 308.409C383.319 311.274 384.856 313.055 384.856 313.055Z" fill="#D16E50"/>
    <path d="M363.359 310.191C363.359 310.191 371.976 307.158 372.843 300.397C373.711 293.636 360.653 306.431 360.653 306.431C360.653 306.431 362.79 309.194 363.359 310.191Z" fill="#A64927"/>
    <path d="M384.856 313.056C384.921 319.81 374.769 323.031 369.388 321.803C367.798 320.877 366.787 319.954 366.158 319.101C366.138 318.969 366.129 318.835 366.129 318.702C366.115 317.447 365.919 316.2 365.547 315.001C365.64 315.06 369.416 317.487 373.256 316.148C377.143 314.793 381.145 311.555 381.323 308.405C383.319 311.274 384.856 313.056 384.856 313.056Z" fill="#A64927"/>
    <path d="M375.14 293.798C374.91 295.182 374.544 296.54 374.046 297.852C370.762 306.409 363.039 308.375 363.039 308.375C356.317 310.355 350.388 308.312 345.843 303.018C345.07 302.113 344.361 301.156 343.721 300.152C343.377 299.617 343.044 299.06 342.722 298.481C341.916 297.033 341.285 295.495 340.841 293.898C338.936 287.041 340.97 281.119 341.042 280.906C341.042 280.906 356.32 267.479 361.624 265.978C361.909 265.899 362.205 265.87 362.499 265.894C363.424 265.959 364.452 266.476 365.516 267.337C370.732 271.599 376.74 284.343 375.14 293.798Z" fill="#DC7A55"/>
    <g opacity="0.55">
        <path opacity="0.55" d="M350.735 307.147C350.735 307.147 354.504 305.173 354.881 300.428L347.62 304.858L349.12 306.079C349.236 306.173 349.356 306.26 349.481 306.341L350.735 307.147Z" fill="#A64927"/>
    </g>
    <path d="M375.14 293.798C374.91 295.183 374.544 296.541 374.046 297.853C373.051 296.871 371.983 296.061 370.853 295.544C364.443 292.605 363.574 285.92 364.838 282.587C366.103 279.253 361.166 274.305 358.222 274.305C355.278 274.305 354.748 279.381 351.341 285.298C347.934 291.216 340.834 293.899 340.834 293.899C338.928 287.042 340.963 281.12 341.035 280.907C341.035 280.907 356.313 267.481 361.617 265.979C361.901 265.9 362.197 265.872 362.491 265.895C363.396 266.327 364.396 266.814 365.509 267.339C370.732 271.6 376.74 284.343 375.14 293.798Z" fill="#A64927"/>
    <path d="M558.141 446.373V481.846H136V468.774L136.015 459.394L136.019 457.138L136.031 450.105L136.04 444.727L136.062 430.861L136.071 425.856V425.828L136.078 421.935L136.097 410.521L136.223 334L558.141 446.373Z" fill="white"/>
    <path d="M196.105 398.453C196.105 398.453 237.265 450.89 260.284 450.542C283.303 450.194 294.712 435.11 307.536 435.223C320.36 435.336 369.518 437.61 378.874 431.53C388.229 425.45 421.299 409.808 421.299 409.808L405.42 405.58L287.503 409.808L196.105 398.453Z" fill="#E8DCB5"/>
    <path d="M314.391 394.037C314.391 394.037 320.667 400.366 333.659 399.125C337.043 398.801 339.674 398.195 341.719 397.474C345.181 396.256 345.134 391.35 341.643 390.219L333.03 387.429L314.391 394.037Z" fill="#E8DCB5"/>
    <path d="M385.957 408.812C385.957 408.812 384.681 411.435 382.656 414.855C379.167 420.742 373.465 428.992 368.232 430.275C359.958 432.307 305.13 430.1 303.01 428.421C300.889 426.743 321.866 411.442 321.866 411.442C326.397 410.521 334.396 409.919 343.239 409.527C362.577 408.67 385.957 408.812 385.957 408.812Z" fill="#FF5353"/>
    <path d="M385.957 408.812C385.957 408.812 384.68 411.435 382.656 414.855C374.041 416.484 350.615 421.688 337.215 422.98C320.574 424.583 321.03 419.587 321.03 419.587C321.03 419.587 330.821 414.622 343.238 409.527C362.577 408.67 385.957 408.812 385.957 408.812Z" fill="#E03636"/>
    <path d="M322.935 411.442C322.935 411.442 319.215 417.818 321.03 419.588C322.846 421.357 347.402 421.443 353.15 419.588C358.898 417.733 348.645 406.582 346.173 407.558C343.701 408.534 322.935 411.442 322.935 411.442Z" fill="#0A1221"/>
    <path d="M359.534 410.844C359.534 410.844 358.444 411.285 355.176 412.256C351.907 413.227 348.198 412.167 343.867 413.051C339.537 413.935 319.928 416.143 321.077 413.051C322.226 409.96 323.996 406.696 328.568 403.776C331.38 401.981 332.247 400.79 334.123 400.486C335.296 400.296 336.862 400.452 339.546 401.024C346.524 402.512 355.653 402.01 355.653 402.01C355.653 402.01 362.779 403.688 363.132 405.101C363.486 406.513 359.534 410.844 359.534 410.844Z" fill="#DC7A55"/>
    <path d="M328.048 330.274L325.986 330.675L324.24 321.968L321.431 307.955L319.959 300.619L321.829 300.219L323.497 308.275L326.276 321.711L328.048 330.274Z" fill="#CE3434"/>
    <path d="M326.283 321.711C324.86 321.23 324.517 321.567 324.246 321.968L321.437 307.955C322.117 307.902 322.854 308.061 323.504 308.275L326.283 321.711Z" fill="#B71818"/>
    <path d="M328.047 320.623C326.634 321.722 325.104 319.871 323.964 320.346C322.825 320.821 316.192 327.18 315.171 327.886C314.149 328.593 314.896 330.83 314.896 330.83C314.896 330.83 308.039 335.612 304.885 331.577C304.885 331.577 304.776 330.557 305.282 328.678C305.763 326.902 306.788 324.359 308.976 321.186C313.48 314.649 317.632 309.246 320.194 309.12C322.757 308.993 328.752 311.87 329.224 313.246C329.695 314.622 329.462 319.524 328.047 320.623Z" fill="#DC7A55"/>
    <path d="M328.047 320.623C326.634 321.722 325.104 319.871 323.964 320.346C322.825 320.821 316.192 327.18 315.171 327.886C314.149 328.593 314.896 330.83 314.896 330.83C314.896 330.83 308.039 335.612 304.885 331.577C304.885 331.577 304.776 330.557 305.282 328.678C305.282 328.678 312.952 329.52 313.128 327.575C313.304 325.63 322.785 317.681 323.727 318.69C324.669 319.698 328.047 320.623 328.047 320.623Z" fill="#A64927"/>
    <path d="M322.914 315.183C323.525 315.218 324.13 315.323 324.718 315.494C325.306 315.655 325.88 315.863 326.435 316.115C326.999 316.367 327.533 316.68 328.029 317.048C328.285 317.238 328.519 317.455 328.726 317.697C328.831 317.824 328.922 317.962 328.996 318.109C329.032 318.187 329.06 318.267 329.08 318.35C329.098 318.432 329.101 318.516 329.089 318.599H329.04C329.016 318.456 328.955 318.321 328.862 318.208C328.771 318.092 328.668 317.986 328.554 317.891C328.329 317.698 328.087 317.525 327.833 317.372C327.319 317.066 326.787 316.792 326.24 316.55C325.696 316.3 325.143 316.069 324.585 315.85C324.305 315.741 324.025 315.636 323.742 315.533C323.46 315.429 323.179 315.325 322.9 315.227L322.914 315.183Z" fill="#A64927"/>
    <path d="M322.615 312.061C323.269 312.035 323.925 312.086 324.567 312.215C325.209 312.332 325.839 312.505 326.451 312.732C327.073 312.96 327.665 313.264 328.213 313.637C328.494 313.828 328.75 314.052 328.978 314.303C329.215 314.554 329.383 314.861 329.467 315.195L329.424 315.216C329.27 314.939 329.062 314.696 328.811 314.502C328.565 314.301 328.301 314.122 328.023 313.969C327.464 313.661 326.882 313.399 326.281 313.183C325.68 312.957 325.078 312.76 324.462 312.582C324.156 312.494 323.846 312.411 323.537 312.332C323.228 312.252 322.918 312.175 322.605 312.107L322.615 312.061Z" fill="#A64927"/>
    <g opacity="0.29">
        <path opacity="0.29" d="M359.534 410.844C359.534 410.844 358.444 411.285 355.176 412.256C351.907 413.227 348.198 412.167 343.867 413.051C339.537 413.935 319.928 416.143 321.077 413.051C322.226 409.959 323.996 406.696 328.568 403.776C331.38 401.981 332.247 400.79 334.123 400.486C336.423 402.757 340.37 409.256 341.461 410.726C342.816 412.552 347.822 412.08 349.642 412.021C351.462 411.962 357.942 410.136 358.534 408.369C359.126 406.602 355.647 402.01 355.647 402.01C355.647 402.01 362.772 403.688 363.126 405.101C363.48 406.513 359.534 410.844 359.534 410.844Z" fill="#A64927"/>
    </g>
    <path d="M414.437 400.412C414.462 401.658 414.026 406.645 405.822 409.315C396.399 412.377 359.535 410.847 359.535 410.847C359.535 410.847 362.714 403.78 355.648 402.014C355.648 402.014 364.245 397.89 370.134 396.239L368.104 395.718L365.071 394.944C365.071 394.944 365.659 379.989 361.771 379.508C361.771 379.508 352.938 379.508 351.406 366.671C351.406 366.671 333.976 392.995 326.555 395.468C325.877 395.696 325.188 395.888 324.489 396.042C317.897 397.486 312.008 394.89 308.008 384.161C303.592 372.324 303.003 343.468 304.416 330.508C304.416 330.508 312.072 331.92 315.363 329.565C315.363 329.565 322.901 362.19 325.846 367.726C325.846 367.726 343.748 327.093 346.929 323.558C350.109 320.024 361.424 317.848 365.543 314.99C365.543 314.99 368.688 319.142 374.607 316.933C380.526 314.725 382.326 311 381.825 309.108C381.325 307.216 384.58 310.367 385.795 310.21C387.01 310.052 401.99 308.541 409.881 315.432C417.773 322.323 428.313 353.592 431.611 394.579C431.611 394.579 426.077 399.881 414.415 400.113C414.42 400.125 414.433 400.227 414.437 400.412Z" fill="#FFA032"/>
    <path d="M394.279 336.406C394.279 336.406 391.688 391.527 390.982 392.586C390.982 392.586 380.615 393.88 370.134 396.237L368.103 395.716C371.078 394.32 377.418 391.886 381.558 390.112C388.98 386.933 391.923 330.282 394.279 336.406Z" fill="#FF8113"/>
    <path d="M414.42 400.125C414.42 400.125 414.433 400.227 414.437 400.412C414.407 400.319 414.401 400.22 414.42 400.125V400.125Z" stroke="white" stroke-width="0.120299" stroke-miterlimit="10"/>
    <path d="M431.616 394.589C431.616 394.589 426.082 399.89 414.42 400.122C414.936 397.218 417.187 359.867 417.187 359.867C419.954 351.292 419.13 389.759 420.307 394.234C421.485 398.709 431.616 394.589 431.616 394.589Z" fill="#FF8113"/>
    <path d="M351.407 366.676C351.407 366.676 333.981 392.999 326.555 395.473C325.877 395.701 325.188 395.892 324.49 396.047C324.706 395.846 344.58 377.322 345.518 364.438C346.46 351.482 347.756 337.466 350.111 339.822C350.111 339.822 352.113 351.719 351.407 366.676Z" fill="#FF8113"/>
    <path d="M325.876 367.718C326.232 368.181 326.554 368.668 326.838 369.177C326.98 369.431 327.114 369.689 327.247 369.949C327.381 370.208 327.495 370.476 327.615 370.741C328.088 371.813 328.451 372.931 328.698 374.076C328.952 375.231 329.05 376.416 328.989 377.597C328.955 378.189 328.867 378.777 328.725 379.352C328.578 379.924 328.361 380.475 328.077 380.993L328.021 380.973C328.196 380.43 328.324 379.872 328.403 379.307C328.48 378.741 328.517 378.17 328.513 377.598C328.494 376.455 328.359 375.317 328.11 374.201C327.871 373.082 327.557 371.98 327.168 370.904C326.975 370.365 326.766 369.832 326.541 369.306C326.319 368.779 326.084 368.256 325.819 367.742L325.876 367.718Z" fill="#DF5F16"/>
    <path d="M360.653 271.156C360.653 271.156 357.179 268.565 354.706 275.515C352.232 282.464 343.398 292.116 331.149 295.066C318.9 298.015 308.3 294.945 300.645 299.306C300.645 299.306 301.586 297.657 313.835 294.594C326.084 291.531 331.149 287.292 335.036 277.512C338.923 267.731 355.607 257.181 365.874 267.647C376.142 278.113 374.295 282.819 374.295 282.819L368.019 283.849C368.019 283.849 365.128 274.455 360.653 271.156Z" fill="#333D47"/>
    <path d="M144.992 450.682C144.97 450.775 144.73 450.851 144.38 450.902L144.308 450.913C144.087 450.946 143.827 450.969 143.55 450.983L143.326 450.993C143.275 450.993 143.222 450.993 143.169 450.993C143.017 450.993 142.866 450.993 142.716 450.993C141.885 450.981 141.126 450.884 141.043 450.676C140.871 450.265 136.932 442.741 136.041 441.045L136.053 433.872L136.083 415.372L136.095 408.696V408.658C136.215 409.035 136.325 409.415 136.42 409.793C137.19 412.876 138.061 414.614 139.056 416.12C140.005 417.556 141.066 418.78 142.259 420.755C144.705 424.805 145.08 450.308 144.992 450.682Z" fill="#05B7AB"/>
    <path d="M144.973 450.682C144.95 450.777 144.686 450.857 144.302 450.913L142.896 445.292L137.156 422.356C136.866 420.071 136.514 417.714 136.083 415.372L136.095 408.695C136.215 409.056 136.316 409.428 136.408 409.794C137.183 412.895 138.058 414.636 139.063 416.149C140.006 417.572 141.061 418.796 142.248 420.755C144.692 424.805 145.069 450.308 144.973 450.682Z" fill="#008477"/>
    <path d="M146.536 411.368C146.536 411.368 144.611 396.665 144.611 392.24C144.611 387.815 144.047 378.501 144.611 378.029C145.175 377.558 145.44 377.559 145.453 379.629C145.466 381.699 151.763 410.873 153.273 413.794C154.782 416.715 152.521 419.722 154.684 427.91C156.847 436.098 164.231 446.075 158.894 445.131C153.558 444.186 144.235 440.331 145.738 432.143C147.242 423.956 146.536 411.368 146.536 411.368Z" fill="#05B7AB"/>
    <path d="M154.124 440.707C154.296 439.954 151.852 422.261 153.074 416.71C154.296 411.158 155.989 408.805 155.331 400.9C154.673 392.995 155.989 384.525 156.742 384.337C157.495 384.149 158.152 391.395 158.152 395.347C158.152 399.299 159.374 413.512 159.751 415.768C160.127 418.023 154.124 440.707 154.124 440.707Z" fill="#008477"/>
    <path d="M154.124 440.707C154.124 440.707 154.485 423.865 158.435 415.016C162.384 406.166 163.889 393.936 163.889 389.325C163.889 384.714 166.054 369.691 166.054 368.685C166.054 367.679 166.525 367.679 167.184 369.373C167.843 371.067 167.184 393.276 167.184 400.523C167.184 407.77 166.151 415.295 165.633 419.907C165.116 424.519 157.027 451.695 154.77 451.001C152.513 450.307 149.597 446.635 150.439 445.694C151.282 444.754 154.124 440.707 154.124 440.707Z" fill="#05B7AB"/>
    <path d="M198.405 368.809C198.405 368.809 197.747 368.338 197.042 369.232C196.337 370.126 176.871 399.06 173.292 407.79L173.859 417.655L180.815 403.727L198.405 368.809Z" fill="#05B7AB"/>
    <path d="M144.992 454.639C144.657 454.583 144.304 454.512 143.94 454.43C143.732 454.384 143.519 454.335 143.305 454.282H143.289C143.155 454.249 143.021 454.215 142.885 454.178L142.477 454.068C140.183 453.424 139.011 455.183 138.33 454.429C138.09 454.118 137.874 453.788 137.687 453.442C137.257 452.707 136.681 451.649 136.031 450.435L136.047 441.051L136.059 433.878C136.688 434.988 137.228 435.953 137.563 436.573C138.324 437.978 141.013 444.623 142.936 449.445C143.001 449.601 143.057 449.755 143.122 449.908L143.14 449.952L143.55 450.984C143.939 451.965 144.272 452.809 144.522 453.44L144.896 454.389C144.954 454.548 144.992 454.639 144.992 454.639Z" fill="#41CEC0"/>
    <path d="M154.639 448.599L153.107 450.08L149.633 453.436L148.401 454.626V454.632L147.024 454.536L145.551 454.431L144.896 454.385L143.921 454.318L143.304 454.274H143.289C143.289 454.244 143.279 453.95 143.261 453.44C143.24 452.871 143.21 452.036 143.168 450.998C143.154 450.656 143.138 450.291 143.121 449.908C143.065 448.572 142.991 447 142.901 445.293C142.531 438.28 141.875 428.976 140.856 424.361C140.406 422.327 139.792 419.429 139.07 416.155C139.068 416.146 139.065 416.136 139.062 416.126C138.199 412.193 137.18 407.705 136.11 403.471L136.128 388.234C137.426 390.613 138.534 392.721 139.085 393.789C140.707 396.965 143.599 401.624 144.234 403.318C144.595 404.281 145.627 408.01 146.535 411.363C147.234 413.944 147.859 416.306 148.043 417.011C148.465 418.633 148.607 420.681 149.593 421.88C150.58 423.08 150.229 424.138 150.017 425.339C149.805 426.54 151.22 428.304 151.498 428.869C151.776 429.433 151.498 430.209 151.498 431.904C151.498 433.599 153.543 434.868 153.192 436.349C152.84 437.83 153.261 438.755 153.897 439.809C154.049 440.056 154.128 440.342 154.125 440.633C154.126 440.656 154.126 440.68 154.125 440.704C154.101 441.425 153.698 442.187 153.899 443.337C153.918 443.445 153.937 443.562 153.958 443.687C154.049 444.255 154.155 444.975 154.254 445.686C154.296 446.002 154.342 446.318 154.381 446.617C154.526 447.712 154.639 448.599 154.639 448.599Z" fill="#41CEC0"/>
    <path d="M174.007 415.391C174.007 415.391 175.361 413.416 175.55 412.004C175.738 410.591 176.02 410.875 177.242 409.369C178.464 407.863 178.464 407.016 178.464 406.361C178.464 405.707 178.558 405.608 179.307 404.761C180.055 403.915 180.341 402.596 180.435 401.938C180.529 401.28 180.435 402.597 181.277 400.997C182.119 399.397 182.119 397.421 182.97 396.95C183.82 396.48 184.568 395.916 184.662 395.257C184.756 394.597 184.004 393.75 184.662 393.186C185.32 392.622 185.886 392.81 186.167 392.151C186.449 391.491 186.731 390.175 186.825 389.61C186.919 389.044 187.766 387.822 188.049 387.634C188.331 387.447 188.613 386.505 188.707 385.939C188.801 385.374 190.271 385.658 190.287 384.717C190.304 383.777 189.987 383.117 190.287 382.647C190.588 382.177 191.151 382.175 191.434 381.517C191.717 380.859 191.057 380.294 191.434 379.635C191.81 378.975 192.562 378.977 192.75 378.317C192.938 377.658 193.033 377 193.592 376.247C194.151 375.494 193.403 377.188 194.72 375.024C196.038 372.859 197.259 369.283 198.387 368.812C198.387 368.812 198.482 369.377 197.918 370.225C197.354 371.073 195.632 374.741 194.649 378.199C193.667 381.658 182.499 400.997 179.58 409.56C176.66 418.123 172.339 428.193 171.587 429.041L174.007 415.391Z" fill="#41CEC0"/>
    <path d="M190.296 398.757C190.296 398.757 187.898 398.523 185.003 404.099C182.107 409.674 175.601 423.648 173.636 426.97C171.67 430.291 169.342 447.086 166.24 449.485C163.137 451.884 166.099 452.237 168.637 450.12C171.176 448.003 176.269 434.522 177.602 430.428C178.475 427.747 181.82 416.187 185.212 407.738C186.997 403.288 188.547 399.495 190.296 398.757Z" fill="#05B7AB"/>
    <path d="M188.62 401.275C185.33 404.57 180.721 426.12 177.524 438.639C174.326 451.159 166.228 453.52 165.957 453.602C165.388 453.778 160.69 454.638 160.69 454.638H160.631L161.218 454.409C161.226 454.404 161.235 454.4 161.244 454.398C169.286 450.669 175.356 434.5 176.015 433.181C176.674 431.863 176.015 431.959 176.015 431.217C176.015 430.474 176.955 430.64 177.426 429.701C177.898 428.761 177.802 427.442 177.709 426.183C177.616 424.925 178.177 425.184 178.647 424.523C179.118 423.863 179.489 421.231 179.402 420.192C179.314 419.154 179.587 418.781 180.53 418.216C181.473 417.65 181.47 416.241 181.47 414.736C181.47 413.231 181.94 413.042 182.879 412.195C183.819 411.348 186.923 402.031 188.24 400.148C189.557 398.265 191.909 397.978 188.62 401.275Z" fill="#41CEC0"/>
    <path d="M173.383 429.601C172.827 432.286 172.274 449.356 161.246 454.395C161.237 454.397 161.228 454.401 161.221 454.406C161.047 454.486 160.869 454.562 160.688 454.634H148.396C148.505 454.496 150.313 452.228 152.356 449.447C153.019 448.545 153.707 447.585 154.373 446.627C155.775 444.6 157.064 442.579 157.764 441.093C159.837 436.669 159.369 435.921 159.556 434.975C159.742 434.029 160.309 434.6 160.966 433.377C161.622 432.155 161.437 430.175 161.437 429.328C161.437 428.481 162.848 427.163 163.224 426.506C163.599 425.849 163.883 422.175 165.105 420.576C165.296 420.325 165.466 420.108 165.624 419.916C166.454 418.891 166.808 418.569 167.362 417.38C168.019 415.969 172.251 407.781 171.875 402.228C171.5 396.675 172.347 390.653 173.098 390.936C173.848 391.219 173.851 398.747 174.04 401.946C174.229 405.144 173.949 426.874 173.383 429.601Z" fill="#41CEC0"/>
    <g opacity="0.8">
        <path opacity="0.8" d="M154.376 446.622C154.376 446.622 151.127 451.563 147.014 454.539L145.542 454.434C148.549 452.311 152.646 448.982 154.248 445.691C154.294 446.006 154.339 446.322 154.376 446.622Z" fill="#33624B"/>
    </g>
    <g opacity="0.8">
        <path opacity="0.8" d="M143.935 454.426C143.454 454.321 142.965 454.197 142.471 454.059C142.438 452.542 142.931 449.442 142.931 449.442C143.002 449.615 143.067 449.784 143.134 449.951C143.236 450.513 143.679 453.017 143.935 454.426Z" fill="#33624B"/>
    </g>
    <path d="M169.721 445.192C168.675 446.745 167.517 448.22 166.257 449.606C164 452.045 161.247 454.331 160.69 454.634C160.69 454.634 167.472 450.631 171.277 443.101L169.721 445.192Z" fill="#33624B"/>
    <path d="M190.165 383.199C190.173 383.6 190.305 384.094 190.295 384.713C190.275 385.656 188.808 385.373 188.712 385.937C188.615 386.501 188.337 387.442 188.055 387.631C187.772 387.82 186.926 389.043 186.834 389.608C186.741 390.172 186.455 391.488 186.173 392.148C185.892 392.809 185.331 392.617 184.669 393.182C184.008 393.746 184.762 394.594 184.669 395.254C184.577 395.915 183.827 396.477 182.977 396.948C182.126 397.42 182.135 399.393 181.284 400.994C180.434 402.595 180.531 401.275 180.442 401.933C180.353 402.591 180.067 403.91 179.314 404.757C178.561 405.604 178.472 405.7 178.472 406.358C178.472 407.016 178.472 407.863 177.249 409.365C176.027 410.868 175.743 410.588 175.557 411.999C175.37 413.41 174.013 415.388 174.013 415.388L173.613 417.657C173.613 415.946 174.078 411.502 174.11 411.361C174.124 411.264 183.127 395.508 190.165 383.199Z" fill="#008477"/>
    <path d="M177.343 456.059V461.863C177.342 462.053 177.265 462.235 177.13 462.369C176.994 462.503 176.812 462.578 176.621 462.578H176.565C176.395 462.579 176.231 462.64 176.102 462.75C175.972 462.86 175.886 463.012 175.858 463.18L173.276 478.586C173.238 478.81 173.196 479.032 173.15 479.251C173.085 479.551 173.011 479.852 172.931 480.143C172.899 480.263 172.864 480.384 172.828 480.497C172.809 480.564 172.787 480.63 172.766 480.698C172.755 480.736 172.743 480.774 172.73 480.811C172.712 480.867 172.694 480.923 172.673 480.979C172.645 481.067 172.615 481.154 172.583 481.239C172.558 481.312 172.531 481.386 172.502 481.459C172.494 481.486 172.484 481.511 172.473 481.536C172.447 481.608 172.419 481.679 172.39 481.75C172.354 481.841 172.318 481.931 172.28 482.021C172.259 482.069 172.239 482.118 172.217 482.167C172.196 482.215 172.163 482.287 172.135 482.352C172.108 482.417 172.066 482.507 172.028 482.584C171.991 482.661 171.956 482.736 171.919 482.811C171.911 482.832 171.901 482.851 171.89 482.87C171.862 482.928 171.834 482.991 171.803 483.042C171.773 483.094 171.757 483.134 171.732 483.18C171.699 483.244 171.665 483.308 171.63 483.372C171.627 483.378 171.624 483.384 171.621 483.39H136.872C136.537 482.776 136.246 482.139 136 481.484V465.947L136.02 453.436H174.719C175.415 453.436 176.083 453.712 176.575 454.204C177.067 454.696 177.343 455.363 177.343 456.059V456.059Z" fill="#EF8854"/>
    <path d="M176.568 462.579C176.398 462.58 176.234 462.64 176.105 462.751C175.975 462.861 175.889 463.013 175.86 463.18L173.279 478.587C173.241 478.811 173.199 479.032 173.152 479.251C173.088 479.552 173.015 479.852 172.934 480.143C172.902 480.264 172.867 480.384 172.831 480.497C172.812 480.565 172.79 480.631 172.769 480.698C172.758 480.737 172.746 480.774 172.733 480.811C172.715 480.868 172.697 480.923 172.676 480.98C172.648 481.068 172.618 481.154 172.586 481.239C172.561 481.313 172.534 481.386 172.505 481.46C172.497 481.486 172.487 481.511 172.476 481.537C172.45 481.609 172.422 481.68 172.393 481.751C172.357 481.841 172.321 481.931 172.283 482.021C172.262 482.069 172.242 482.119 172.22 482.167C172.199 482.215 172.166 482.287 172.138 482.352C172.111 482.417 172.069 482.507 172.031 482.584C171.994 482.661 171.959 482.736 171.922 482.812C171.913 482.832 171.904 482.852 171.893 482.871C171.865 482.928 171.836 482.991 171.806 483.043C171.776 483.094 171.759 483.134 171.735 483.18C171.702 483.245 171.668 483.309 171.633 483.372C171.63 483.379 171.627 483.385 171.623 483.39H164.499C166.965 477.291 166.487 470.956 165.605 467.81C164.31 463.197 154.64 462.579 154.64 462.579H176.568Z" fill="#D35D29"/>
    <path d="M319.959 300.619V295.878L321.83 300.218L319.959 300.619Z" fill="#CE3434"/>
    <path d="M316.461 312.888C316.461 312.888 317.957 308.212 317.555 307.01C317.153 305.808 320.983 305.495 319.961 309.949C318.938 314.402 316.461 312.888 316.461 312.888Z" fill="#DC7A55"/>
    <path d="M394.309 336.408C394.255 338.754 394.165 341.1 394.084 343.441C394.041 344.614 394.008 345.786 393.956 346.957L393.8 350.471L393.49 357.5C393.383 359.843 393.249 362.184 393.136 364.526C393.079 365.698 393.016 366.869 392.947 368.039L392.75 371.55L392.552 375.062L392.338 378.573C392.058 383.254 391.754 387.935 391.428 392.613L391.402 392.994L391.032 393.032C389.286 393.214 387.533 393.425 385.786 393.652C384.039 393.878 382.297 394.124 380.551 394.39C378.804 394.656 377.062 394.922 375.33 395.232C374.463 395.393 373.595 395.545 372.732 395.728C371.865 395.89 371.005 396.082 370.141 396.268L370.125 396.21C371.836 395.768 373.559 395.383 375.288 395.027C377.016 394.67 378.755 394.36 380.495 394.064C382.236 393.768 383.984 393.499 385.727 393.245C387.47 392.991 389.223 392.754 390.976 392.545L390.935 392.588L391.748 378.542L392.578 364.497L394.251 336.405L394.309 336.408Z" fill="#DF5F16"/>
    <path d="M417.479 359.177L417.462 360.472L417.426 361.764L417.349 364.35L417.244 366.933C417.209 367.794 417.161 368.654 417.124 369.516L417.06 370.807L416.986 372.096L416.833 374.677L416.483 379.833L416.079 384.985C415.925 386.702 415.789 388.42 415.617 390.134C415.533 390.992 415.457 391.849 415.365 392.707L415.092 395.278L414.79 397.847L414.637 399.131L414.468 400.415H414.408L415.884 379.794L417.419 359.177H417.479Z" fill="#DF5F16"/>
    <path d="M350.141 339.819C350.574 342.03 350.882 344.257 351.141 346.488C351.277 347.604 351.374 348.721 351.484 349.84C351.537 350.398 351.574 350.959 351.616 351.524C351.658 352.089 351.703 352.643 351.737 353.208L351.824 354.892C351.848 355.453 351.877 356.015 351.893 356.577C351.909 357.138 351.922 357.7 351.93 358.261C351.939 358.821 351.949 359.384 351.937 359.945C351.925 360.506 351.93 361.07 351.911 361.629L351.83 363.313C351.815 363.595 351.783 363.876 351.761 364.155C351.738 364.435 351.714 364.717 351.682 364.998C351.622 365.558 351.524 366.116 351.436 366.672H351.376L351.431 365.83L351.459 365.411L351.473 365.201V364.992C351.485 364.431 351.504 363.872 351.509 363.307L351.501 361.623L351.46 359.939C351.388 357.699 351.279 355.46 351.131 353.221C350.984 350.983 350.827 348.747 350.662 346.512C350.483 344.277 350.292 342.042 350.075 339.811L350.141 339.819Z" fill="#DF5F16"/>
    <path d="M347.081 298.337C347.601 298.082 347.774 297.371 347.468 296.748C347.163 296.126 346.494 295.828 345.974 296.083C345.455 296.338 345.282 297.049 345.587 297.672C345.893 298.294 346.562 298.592 347.081 298.337Z" fill="#0A1221"/>
    <path d="M357.563 294.255C358.083 294 358.256 293.288 357.95 292.666C357.645 292.043 356.976 291.745 356.456 292C355.937 292.255 355.763 292.967 356.069 293.589C356.375 294.212 357.044 294.51 357.563 294.255Z" fill="#0A1221"/>
    <path d="M350.357 297.393C350.357 297.393 349.761 299.198 348.968 300.952C348.19 302.675 346.164 304.2 346.789 305.191C347.413 306.182 352.638 304.823 354.881 300.704" fill="#DC7A55"/>
    <path d="M350.386 297.403C350.237 298.178 350.045 298.943 349.811 299.697C349.692 300.072 349.566 300.446 349.433 300.819C349.401 300.913 349.365 301.006 349.33 301.097C349.295 301.189 349.249 301.293 349.209 301.388C349.12 301.58 349.025 301.764 348.922 301.942C348.719 302.29 348.498 302.627 348.259 302.952C348.032 303.272 347.803 303.585 347.606 303.893C347.508 304.036 347.42 304.185 347.341 304.339C347.277 304.458 347.233 304.586 347.212 304.719C347.206 304.757 347.206 304.795 347.212 304.832C347.216 304.846 347.221 304.859 347.227 304.871C347.227 304.871 347.234 304.883 347.237 304.89C347.239 304.897 347.249 304.911 347.243 304.897C347.237 304.884 347.222 304.881 347.257 304.897C347.305 304.918 347.355 304.933 347.406 304.942C347.558 304.967 347.711 304.975 347.864 304.966C348.037 304.957 348.209 304.937 348.379 304.907C348.736 304.84 349.088 304.75 349.433 304.639C351.603 303.91 353.495 302.532 354.855 300.692L354.908 300.721C354.143 302.098 353.047 303.263 351.719 304.112C351.062 304.542 350.358 304.895 349.621 305.163C349.251 305.298 348.871 305.403 348.485 305.478C348.096 305.563 347.695 305.58 347.3 305.529C347.199 305.512 347.1 305.483 347.006 305.442C346.905 305.4 346.818 305.331 346.754 305.244C346.636 305.067 346.589 304.852 346.623 304.642C346.656 304.443 346.723 304.251 346.82 304.073C346.912 303.898 347.016 303.73 347.129 303.568C347.578 302.923 348.092 302.335 348.513 301.681C348.619 301.52 348.717 301.353 348.809 301.18C348.899 301.009 348.975 300.83 349.055 300.652C349.216 300.296 349.368 299.935 349.511 299.569C349.803 298.847 350.077 298.115 350.328 297.377L350.386 297.403Z" fill="#A64927"/>
    <path d="M354.362 306.579C354.362 306.579 359.677 306.413 359.207 301.559Z" fill="#DC7A55"/>
    <path d="M354.362 306.579C354.362 306.579 359.677 306.413 359.207 301.559" stroke="#A64927" stroke-width="0.360897" stroke-miterlimit="10"/>
    <path d="M357.851 301.826C357.851 301.826 359.556 301.225 360.625 302.067" stroke="#A64927" stroke-width="0.360897" stroke-miterlimit="10"/>
    <path d="M353.258 288.841C353.258 288.841 357.524 285.825 361.019 288.841C361.019 288.841 356.247 288.077 354.205 289.649C352.164 291.222 352.286 289.389 353.258 288.841Z" fill="#0A1221"/>
    <path d="M346.262 291.02C346.262 291.02 342.043 290.742 340.906 294.299C340.906 294.299 343.878 291.756 345.95 291.979C348.023 292.201 347.165 290.988 346.262 291.02Z" fill="#0A1221"/>
    <g opacity="0.52">
        <path opacity="0.52" d="M345.843 303.018C345.07 302.114 344.361 301.156 343.721 300.153C343.942 299.995 344.185 299.869 344.442 299.781C345.62 299.37 346.835 299.781 347.158 300.703C347.455 301.554 346.873 302.553 345.843 303.018Z" fill="#A52828"/>
    </g>
    <g opacity="0.52">
        <path opacity="0.52" d="M362.041 296.841C363.46 296.021 364.153 294.564 363.588 293.586C363.023 292.608 361.415 292.479 359.996 293.298C358.577 294.118 357.885 295.575 358.45 296.553C359.015 297.531 360.623 297.66 362.041 296.841Z" fill="#A52828"/>
    </g>
    <path d="M369.694 276.772C369.694 276.772 365.659 267.389 355.176 263.328C355.176 263.328 354.461 262.81 354.845 262.463C354.965 262.355 355.194 262.263 355.589 262.209C359.947 261.621 362.538 262.857 362.538 262.857C362.538 262.857 369.591 265.848 374.141 272.015C375.278 273.535 376.189 275.21 376.848 276.99C380.322 286.525 369.694 276.772 369.694 276.772Z" fill="#FEF4D1"/>
    <path d="M369.694 276.772C369.694 276.772 365.659 267.389 355.176 263.328C355.176 263.328 354.461 262.811 354.845 262.463C356.025 262.583 358.566 263.173 361.89 265.887C366.542 269.688 369.074 274.105 370.841 273.752C371.843 273.552 373.176 272.708 374.141 272.015C375.278 273.535 376.189 275.21 376.848 276.99C380.322 286.525 369.694 276.772 369.694 276.772Z" fill="#E5CC8C"/>
    <path d="M378.843 295.604C378.673 295.644 378.5 295.68 378.324 295.713C369.255 297.42 363.542 290.942 365.604 283.286C367.666 275.631 373.904 274.807 373.904 274.807C374.819 274.607 375.76 274.553 376.692 274.647C379.717 274.911 383.282 276.471 385.259 279.612C388.204 284.29 387.421 293.631 378.843 295.604Z" fill="#FEF4D1"/>
    <path d="M378.839 295.604C378.669 295.644 378.496 295.68 378.32 295.713C369.251 297.42 363.538 290.942 365.6 283.286C367.662 275.631 373.9 274.807 373.9 274.807C374.815 274.607 375.756 274.553 376.688 274.647C375.696 275.069 367.532 278.797 368.481 286.349C369.496 294.386 376.766 295.613 378.839 295.604Z" fill="#EEDDAF"/>
    <path d="M252.464 432.391L306.485 415.74L247.063 379.907L196.105 398.453L252.464 432.391Z" fill="white"/>
    <path d="M266.642 428.021L210.257 393.303L204.023 395.572L259.574 429.777L259.253 430.298L266.642 428.021Z" fill="#EF8854"/>
    <path d="M292.669 419.998L306.485 415.74L247.063 379.907L234.805 384.368L292.669 419.998Z" fill="#EF8854"/>
    <path d="M218.524 390.294L211.412 392.883L267.386 427.35L267.05 427.896L275.406 425.32L218.524 390.294Z" fill="#EF8854"/>
    <path d="M234.051 385.035L234.363 384.529L227.23 387.125L284.638 422.474L291.445 420.375L234.051 385.035Z" fill="#EF8854"/>
    <path d="M202.87 395.991L196.105 398.453L252.464 432.391L258.809 430.435L202.87 395.991Z" fill="#EF8854"/>
    <path d="M283.415 422.851L226.435 387.766L226.714 387.313L219.677 389.875L276.339 424.765L276.136 425.095L283.415 422.851Z" fill="#EF8854"/>
    <path d="M179.925 330.748L235.794 371.608C236.445 372.084 236.913 372.77 237.117 373.551L253.008 434.465L196.107 398.453L178.631 331.629C178.587 331.463 178.596 331.287 178.656 331.126C178.716 330.966 178.825 330.827 178.967 330.731C179.109 330.634 179.277 330.584 179.449 330.587C179.621 330.59 179.787 330.647 179.925 330.748V330.748Z" fill="#0A1221"/>
    <path d="M252.465 432.392L253.006 434.465L306.485 418.021C306.485 418.021 307.144 417.24 306.485 415.735L252.465 432.392Z" fill="#0A1221"/>
    <defs>
        <linearGradient id="paint0_linear" x1="556.306" y1="178.563" x2="194.8" y2="540.069" gradientUnits="userSpaceOnUse">
            <stop stop-color="#F6652B"/>
            <stop offset="1" stop-color="#FF9C5E"/>
        </linearGradient>
    </defs>
</svg>
